name rise30.2954peak35.7071fall66.7804.mot
datacolumns 19
datarows 26
range 11.70162400000000 11.74329300000000
endheader
time	ground_force1_vx	ground_force1_vy	ground_force1_vz	ground_force1_px	ground_force1_py	ground_force1_pz	ground_force2_vx	ground_force2_vy	ground_force2_vz	ground_force2_px	ground_force2_py	ground_force2_pz	ground_torque1_x	ground_torque1_y	ground_torque1_z	ground_torque2_x	ground_torque2_y	ground_torque2_z	
11.70162400000000	-0.41727200000000	42.44578800000000	-4.70549000000000	0.29943500000000	0.00000000000000	0.15982200000000	-31.34701500000000	808.46812199999999	-55.45928600000000	0.15340900000000	0.00000000000000	-0.04879600000000	0.00000000000000	-3.61397500000000	0.00000000000000	0.00000000000000	-20.30444200000000	0.00000000000000	
11.70329100000000	-0.39111900000000	49.81398100000000	-5.20194800000000	0.30605300000000	0.00000000000000	0.16014200000000	-32.09808200000000	805.21650199999999	-55.00631300000000	0.15267600000000	0.00000000000000	-0.04866600000000	0.00000000000000	-4.06792100000000	0.00000000000000	0.00000000000000	-20.12944800000000	0.00000000000000	
11.70495900000000	-0.33416500000000	57.28912200000000	-5.62020400000000	0.31196900000000	0.00000000000000	0.16043900000000	-32.86710400000000	801.82637399999999	-54.53129100000000	0.15195100000000	0.00000000000000	-0.04853200000000	0.00000000000000	-4.47561900000000	0.00000000000000	0.00000000000000	-19.95291700000000	0.00000000000000	
11.70662700000000	-0.24304700000000	64.77501400000000	-5.94736600000000	0.31729200000000	0.00000000000000	0.16071600000000	-33.65353000000000	798.29722500000003	-54.03429700000000	0.15123400000000	0.00000000000000	-0.04839500000000	0.00000000000000	-4.82619600000000	0.00000000000000	0.00000000000000	-19.77492200000000	0.00000000000000	
11.70829300000000	-0.11521800000000	72.19807000000000	-6.17541100000000	0.32210500000000	0.00000000000000	0.16097500000000	-34.45672500000000	794.62852499999997	-53.51543400000000	0.15052500000000	0.00000000000000	-0.04825400000000	0.00000000000000	-5.11245600000000	0.00000000000000	0.00000000000000	-19.59552900000000	0.00000000000000	
11.70996300000000	0.05105500000000	79.50963000000000	-6.30114800000000	0.32648000000000	0.00000000000000	0.16121800000000	-35.27596200000000	790.81972800000005	-52.97483300000000	0.14982500000000	0.00000000000000	-0.04810900000000	0.00000000000000	-5.33095600000000	0.00000000000000	0.00000000000000	-19.41480000000000	0.00000000000000	
11.71163000000000	0.25675100000000	86.68584700000000	-6.32580200000000	0.33047100000000	0.00000000000000	0.16144900000000	-36.11042500000000	786.87027200000000	-52.41265300000000	0.14913300000000	0.00000000000000	-0.04796100000000	0.00000000000000	-5.48176700000000	0.00000000000000	0.00000000000000	-19.23279000000000	0.00000000000000	
11.71329700000000	0.50219600000000	93.72553600000001	-6.25430200000000	0.33412500000000	0.00000000000000	0.16166700000000	-36.95920800000000	782.77957800000001	-51.82908300000000	0.14844900000000	0.00000000000000	-0.04780900000000	0.00000000000000	-5.56798400000000	0.00000000000000	0.00000000000000	-19.04954800000000	0.00000000000000	
11.71496200000000	0.78719400000000	100.64653800000001	-6.09438600000000	0.33748100000000	0.00000000000000	0.16187500000000	-37.82131500000000	778.54705700000000	-51.22434000000000	0.14777300000000	0.00000000000000	-0.04765300000000	0.00000000000000	-5.59506800000000	0.00000000000000	0.00000000000000	-18.86511700000000	0.00000000000000	
11.71663000000000	1.11117000000000	107.48114600000000	-5.85563700000000	0.34057100000000	0.00000000000000	0.16207400000000	-38.69565900000000	774.17210499999999	-50.59867200000000	0.14710500000000	0.00000000000000	-0.04749400000000	0.00000000000000	-5.57011000000000	0.00000000000000	0.00000000000000	-18.67953300000000	0.00000000000000	
11.71829600000000	1.47331200000000	114.27113600000000	-5.54853100000000	0.34342300000000	0.00000000000000	0.16226300000000	-39.58106400000000	769.65411400000005	-49.95235700000000	0.14644500000000	0.00000000000000	-0.04733100000000	0.00000000000000	-5.50107900000000	0.00000000000000	0.00000000000000	-18.49282700000000	0.00000000000000	
11.71996000000000	1.87269600000000	121.06288499999999	-5.18357900000000	0.34606000000000	0.00000000000000	0.16244500000000	-40.47626400000000	764.99246800000003	-49.28570600000000	0.14579300000000	0.00000000000000	-0.04716500000000	0.00000000000000	-5.39613700000000	0.00000000000000	0.00000000000000	-18.30502400000000	0.00000000000000	
11.72163100000000	2.30839300000000	127.90294299999999	-4.77061300000000	0.34850100000000	0.00000000000000	0.16261900000000	-41.37990800000000	760.18655100000001	-48.59906100000000	0.14514800000000	0.00000000000000	-0.04699500000000	0.00000000000000	-5.26304700000000	0.00000000000000	0.00000000000000	-18.11614100000000	0.00000000000000	
11.72328900000000	2.77954800000000	134.83432999999999	-4.31825000000000	0.35076400000000	0.00000000000000	0.16278700000000	-42.29055700000000	755.23575300000005	-47.89280000000000	0.14451100000000	0.00000000000000	-0.04682100000000	0.00000000000000	-5.10872100000000	0.00000000000000	0.00000000000000	-17.92619400000000	0.00000000000000	
11.72496300000000	3.28543200000000	141.89372000000000	-3.83353800000000	0.35286500000000	0.00000000000000	0.16294800000000	-43.20668900000000	750.13947099999996	-47.16733000000000	0.14388100000000	0.00000000000000	-0.04664400000000	0.00000000000000	-4.93890300000000	0.00000000000000	0.00000000000000	-17.73518800000000	0.00000000000000	
11.72662500000000	3.82546700000000	149.10956899999999	-3.32178800000000	0.35481600000000	0.00000000000000	0.16310300000000	-44.12670200000000	744.89712099999997	-46.42309700000000	0.14325700000000	0.00000000000000	-0.04646300000000	0.00000000000000	-4.75800100000000	0.00000000000000	0.00000000000000	-17.54312900000000	0.00000000000000	
11.72829300000000	4.39922400000000	156.50116100000000	-2.78656600000000	0.35662800000000	0.00000000000000	0.16325300000000	-45.04891300000000	739.50814000000003	-45.66058000000000	0.14264100000000	0.00000000000000	-0.04627900000000	0.00000000000000	-4.56905200000000	0.00000000000000	0.00000000000000	-17.35001300000000	0.00000000000000	
11.72996100000000	5.00640500000000	164.07847599999999	-2.22981400000000	0.35831300000000	0.00000000000000	0.16339700000000	-45.97156800000000	733.97199699999999	-44.88029400000000	0.14203000000000	0.00000000000000	-0.04609200000000	0.00000000000000	-4.37379200000000	0.00000000000000	0.00000000000000	-17.15583500000000	0.00000000000000	
11.73162200000000	5.64680900000000	171.84273800000000	-1.65208000000000	0.35987700000000	0.00000000000000	0.16353600000000	-46.89283700000000	728.28820199999996	-44.08278700000000	0.14142600000000	0.00000000000000	-0.04590100000000	0.00000000000000	-4.17281400000000	0.00000000000000	0.00000000000000	-16.96058500000000	0.00000000000000	
11.73329700000000	6.32028500000000	179.78748700000000	-1.05280200000000	0.36133100000000	0.00000000000000	0.16367100000000	-47.81082700000000	722.45631600000002	-43.26864500000000	0.14082800000000	0.00000000000000	-0.04570800000000	0.00000000000000	-3.96578000000000	0.00000000000000	0.00000000000000	-16.76424900000000	0.00000000000000	
11.73495500000000	7.02668500000000	187.89998299999999	-0.43063300000000	0.36268000000000	0.00000000000000	0.16380000000000	-48.72357800000000	716.47596199999998	-42.43849000000000	0.14023500000000	0.00000000000000	-0.04551100000000	0.00000000000000	-3.75166500000000	0.00000000000000	0.00000000000000	-16.56681000000000	0.00000000000000	
11.73663000000000	7.76581500000000	196.16279399999999	0.21624200000000	0.36393100000000	0.00000000000000	0.16392500000000	-49.62907500000000	710.34683500000006	-41.59297800000000	0.13964800000000	0.00000000000000	-0.04531100000000	0.00000000000000	-3.52901100000000	0.00000000000000	0.00000000000000	-16.36824900000000	0.00000000000000	
11.73829300000000	8.53738700000000	204.55539999999999	0.88980100000000	0.36508900000000	0.00000000000000	0.16404600000000	-50.52524900000000	704.06871500000000	-40.73280000000000	0.13906500000000	0.00000000000000	-0.04510700000000	0.00000000000000	-3.29615900000000	0.00000000000000	0.00000000000000	-16.16854400000000	0.00000000000000	
11.73995600000000	9.34098600000000	213.05570700000001	1.59193200000000	0.36615900000000	0.00000000000000	0.16416300000000	-51.40998200000000	697.64148499999999	-39.85868100000000	0.13848700000000	0.00000000000000	-0.04490100000000	0.00000000000000	-3.05146100000000	0.00000000000000	0.00000000000000	-15.96766900000000	0.00000000000000	
11.74162200000000	10.17603300000000	221.64137500000001	2.32422000000000	0.36714600000000	0.00000000000000	0.16427500000000	-52.28111500000000	691.06513399999994	-38.97138000000000	0.13791400000000	0.00000000000000	-0.04469200000000	0.00000000000000	-2.79344700000000	0.00000000000000	0.00000000000000	-15.76560100000000	0.00000000000000	
11.74329300000000	11.04176900000000	230.29088800000000	3.08780100000000	0.36805400000000	0.00000000000000	0.16438300000000	-53.13645300000000	684.33978000000002	-38.07169000000000	0.13734400000000	0.00000000000000	-0.04448100000000	0.00000000000000	-2.52094600000000	0.00000000000000	0.00000000000000	-15.56231000000000	0.00000000000000	
